<svg version="1.2" baseProfile="tiny" viewBox="0 0 121.381 225.000" xmlns:xlink="http://www.w3.org/1999/xlink" xmlns="http://www.w3.org/2000/svg">
<path style="fill:#ffffff;stroke:#F2F2F2" d="M66.606,198.445    h12.65 M66.606,204.509h12.65 M66.606,168.118h12.65 M66.606,174.184h12.65 M66.606,180.25h12.65 M66.606,186.313h12.65     M66.606,192.38h12.65 M66.606,155.988h12.65 M66.606,77.139h12.65 M66.606,83.205h12.65 M66.606,89.27h12.65 M66.606,95.336h12.65     M66.606,101.401h12.65 M66.606,107.465h12.65 M66.606,119.597h12.65 M66.606,125.661h12.65 M66.606,131.727h12.65 M66.606,137.793    h12.65 M66.606,143.856h12.65 M66.606,149.922h12.65 M66.606,71.074h12.65 M66.606,58.943h12.65 M66.606,46.812h12.65     M66.606,52.877h12.65 M66.606,40.748h12.65 M66.606,28.616h12.65 M66.606,34.682h12.65 M66.606,22.552h12.65"/>
</svg>