<svg version="1.2" baseProfile="tiny" id="EdgeSVG_XcgQv" x="0px" y="0px" width="159.75px" height="90.812px" viewBox="0 0 159.75 90.812" xmlns:xlink="http://www.w3.org/1999/xlink" xmlns="http://www.w3.org/2000/svg">
  <linearGradient id="SVGID_2_" gradientUnits="userSpaceOnUse" x1="0" y1="45.5039" x2="159.7505" y2="45.5039">
    <stop offset="0" style="stop-color:#000000;stop-opacity:0.5"/>
    <stop offset="1" style="stop-color:#000000;stop-opacity:0.5"/>
  </linearGradient>
  <path fill="url(#SVGID_2_)" d="M136.8,39.812h0.495c0.544,0,0.825,0.415,0.825,0.921v1.06h1.32v-5.28c0-1.826-0.814-2.64-2.64-2.64&#xD;&#xA;&#x9;&#x9;h-2.64v2.027c1.674,0.313,2.64,0.612,2.64,0.612V39.812 M16.185,0.197C8.39,0.197,0,1.803,0,5.327c0,3.666,4.106,4.965,15.69,4.965&#xD;&#xA;&#x9;&#x9;c9.902,0,36.575-0.447,50.904-0.688c4.787-0.08,8.245-0.138,8.662-0.138l0.333,0.001l0.282,0.001c0.728,0,2.238,0,2.807-1.268&#xD;&#xA;&#x9;&#x9;c3.668,0.08,4.46,0.542,5.764,1.538c1.32,1.155,6.112,5.623,10.771,10.042l-0.402,0.429l-1.026,1.094l1.094,1.026l13.496,12.664&#xD;&#xA;&#x9;&#x9;l1.094,1.026l1.026-1.094l0.566-0.604c0.899,0.538,2.048,1.009,3.449,1.047v1.142v2.146c-0.75,0.405-1.32,1.142-1.32,2.075v8.979&#xD;&#xA;&#x9;&#x9;v2.379v0.411h-6.75c-1.191,0-2.16,0.969-2.16,2.16v0.989v0.48H90.937c-1.195,0-2.167,0.969-2.167,2.16v26.73&#xD;&#xA;&#x9;&#x9;c0,1.19,0.972,2.159,2.167,2.159h13.343v0.48v0.989c0,1.191,0.969,2.16,2.16,2.16h40.26c0.76,0,1.429-0.395,1.814-0.989h1.865&#xD;&#xA;&#x9;&#x9;c1.164,0,2.111-0.969,2.111-2.16v-0.48h5.093c1.195,0,2.167-0.969,2.167-2.159v-26.73c0-1.191-0.972-2.16-2.167-2.16h-5.093v-0.48&#xD;&#xA;&#x9;&#x9;c0-1.19-0.947-2.159-2.111-2.159h-1.864c-0.385-0.596-1.055-0.99-1.815-0.99h-7.08v-0.411v-0.549h2.46h1.5v-1.5v-1.814&#xD;&#xA;&#x9;&#x9;c0.595-0.386,0.99-1.056,0.99-1.815v-3.96c0-0.76-0.395-1.43-0.99-1.815v-4.125c0-4.118-2.661-6.779-6.78-6.779h-1.166&#xD;&#xA;&#x9;&#x9;c-0.051-0.346-0.178-0.669-0.366-0.957c0.04-0.165,0.062-0.337,0.062-0.514v-5.279c0-1.191-0.969-2.16-2.16-2.16h-13.2&#xD;&#xA;&#x9;&#x9;c-1.191,0-2.16,0.969-2.16,2.16v5.279c0,0.177,0.021,0.349,0.062,0.514c-0.188,0.288-0.315,0.611-0.366,0.957h-2.136l0.668-0.712&#xD;&#xA;&#x9;&#x9;l-1.094-1.026l-13.496-12.665l-1.094-1.026l-1.026,1.094l-0.266,0.282C94.401,11.258,89.474,6.6,88.116,5.423l-0.149-0.129&#xD;&#xA;&#x9;&#x9;l-0.143-0.069c-2.584-1.958-4.644-2.581-9.213-2.666c-0.408-0.687-1.294-1.404-2.94-1.404l-0.113,0.001l-0.086,0.001&#xD;&#xA;&#x9;&#x9;c-1.109,0-8.099-0.128-16.948-0.291C43.139,0.584,22.071,0.197,16.185,0.197L16.185,0.197z"/>
</svg>