<svg version="1.2" baseProfile="tiny" id="EdgeSVG_XcgQv" x="0px" y="0px" width="159.75px" height="90.812px" viewBox="0 0 159.75 90.812" xmlns:xlink="http://www.w3.org/1999/xlink" xmlns="http://www.w3.org/2000/svg">
  <linearGradient id="SVGID_1_" gradientUnits="userSpaceOnUse" x1="88.77" y1="45.4063" x2="159.7505" y2="45.4063">
    <stop offset="0" style="stop-color:#000000;stop-opacity:0.5"/>
    <stop offset="1" style="stop-color:#000000;stop-opacity:0.5"/>
  </linearGradient>
  <path fill="url(#SVGID_1_)" d="M125.711,0c-3.697,0-8.899,0.184-12.68,1.061c-0.967,0.224-1.561,1.098-1.764,2.597&#xD;&#xA;&#x9;&#x9;c-0.006,0.047-0.549,4.742,1.388,5.793c0.144,0.078,0.292,0.139,0.535,0.189v5.562c-0.902,0.45-1.32,1.313-1.32,2.171v15.51&#xD;&#xA;&#x9;&#x9;c0,1.201,0.818,2.412,2.64,2.486v1.144v2.146c-0.75,0.405-1.32,1.142-1.32,2.075v8.979v2.379v0.411h-6.75&#xD;&#xA;&#x9;&#x9;c-1.191,0-2.16,0.969-2.16,2.16v0.989v0.48H90.937c-1.195,0-2.167,0.969-2.167,2.16v26.73c0,1.19,0.972,2.159,2.167,2.159h13.343&#xD;&#xA;&#x9;&#x9;v0.48v0.989c0,1.191,0.969,2.16,2.16,2.16h40.26c0.76,0,1.429-0.395,1.814-0.989h1.865c1.164,0,2.111-0.969,2.111-2.16v-0.48h5.093&#xD;&#xA;&#x9;&#x9;c1.195,0,2.167-0.969,2.167-2.159v-26.73c0-1.191-0.972-2.16-2.167-2.16h-5.093v-0.48c0-1.19-0.947-2.159-2.111-2.159h-1.864&#xD;&#xA;&#x9;&#x9;c-0.385-0.596-1.055-0.99-1.815-0.99h-7.08v-0.411v-2.379v-1.14h2.79c1.191,0,2.16-0.969,2.16-2.16v-3.96&#xD;&#xA;&#x9;&#x9;c0-1.191-0.969-2.16-2.16-2.16h-2.825c-0.13-0.799-0.61-1.439-1.285-1.759v-2.021v-1.106l-0.11-0.034&#xD;&#xA;&#x9;&#x9;c1.899-0.029,2.75-1.265,2.75-2.489v-15.51c0-0.857-0.417-1.721-1.32-2.171V9.646c0.305-0.068,0.505-0.16,0.694-0.296&#xD;&#xA;&#x9;&#x9;c0.459-0.327,1.086-1.038,1.19-3.386c0.059-1.313-0.005-3.653-1.088-4.582C138.897,0.081,125.842,0,125.711,0L125.711,0z"/>
</svg>