<svg version="1.2" baseProfile="tiny" id="EdgeSVG_XcgQv" x="0px" y="0px" width="159.75px" height="90.812px" viewBox="0 0 159.75 90.812" xmlns:xlink="http://www.w3.org/1999/xlink" xmlns="http://www.w3.org/2000/svg">
  <g>
    <linearGradient id="SVGID_60_" gradientUnits="userSpaceOnUse" x1="126.5698" y1="54.002" x2="126.5698" y2="89.3115">
      <stop offset="0.0184" style="stop-color:#FFFFFF;stop-opacity:0"/>
      <stop offset="0.0429" style="stop-color:#FFFFFF;stop-opacity:0.25"/>
      <stop offset="0.1104" style="stop-color:#FFFFFF;stop-opacity:0"/>
      <stop offset="0.2209" style="stop-color:#FFFFFF;stop-opacity:0.5"/>
      <stop offset="0.319" style="stop-color:#FFFFFF;stop-opacity:0.2778"/>
      <stop offset="0.6626" style="stop-color:#000000;stop-opacity:0.4"/>
      <stop offset="0.8589" style="stop-color:#000000;stop-opacity:0.55"/>
      <stop offset="0.9693" style="stop-color:#000000;stop-opacity:0.5"/>
      <stop offset="0.9939" style="stop-color:#000000;stop-opacity:0.65"/>
    </linearGradient>
    <path fill="url(#SVGID_60_)" d="M146.7,54.002h-8.58c-11.88,4.62-11.55,4.62-23.43,0h-8.25c-0.363,0-0.66,0.297-0.66,0.66v33.989&#xD;&#xA;&#x9;&#x9;&#x9;c0,0.363,0.297,0.66,0.66,0.66h40.26c0.363,0,0.66-0.297,0.66-0.66V54.662C147.36,54.299,147.063,54.002,146.7,54.002z"/>
    <linearGradient id="SVGID_61_" gradientUnits="userSpaceOnUse" x1="149.1748" y1="54.9922" x2="149.1748" y2="88.3223">
      <stop offset="0.0184" style="stop-color:#FFFFFF;stop-opacity:0"/>
      <stop offset="0.0429" style="stop-color:#FFFFFF;stop-opacity:0.25"/>
      <stop offset="0.1104" style="stop-color:#FFFFFF;stop-opacity:0"/>
      <stop offset="0.2209" style="stop-color:#FFFFFF;stop-opacity:0.5"/>
      <stop offset="0.319" style="stop-color:#FFFFFF;stop-opacity:0.2778"/>
      <stop offset="0.6626" style="stop-color:#000000;stop-opacity:0.4"/>
      <stop offset="0.8589" style="stop-color:#000000;stop-opacity:0.55"/>
      <stop offset="0.9693" style="stop-color:#000000;stop-opacity:0.5"/>
      <stop offset="0.9939" style="stop-color:#000000;stop-opacity:0.65"/>
    </linearGradient>
    <path fill="url(#SVGID_61_)" d="M150.379,54.992h-3.02v33.33h3.02c0.336,0,0.611-0.298,0.611-0.66V55.651&#xD;&#xA;&#x9;&#x9;&#x9;C150.99,55.289,150.715,54.992,150.379,54.992z"/>
  </g>
  <linearGradient id="SVGID_62_" gradientUnits="userSpaceOnUse" x1="105.7798" y1="71.6563" x2="147.3599" y2="71.6563">
    <stop offset="0.0123" style="stop-color:#000000;stop-opacity:0.1"/>
    <stop offset="0.0245" style="stop-color:#000000;stop-opacity:0"/>
    <stop offset="0.9755" style="stop-color:#000000;stop-opacity:0.12"/>
    <stop offset="0.9877" style="stop-color:#000000;stop-opacity:0.3"/>
  </linearGradient>
  <path fill="url(#SVGID_62_)" d="M146.7,54.002h-8.58c-11.88,4.62-11.55,4.62-23.43,0h-8.25c-0.363,0-0.66,0.297-0.66,0.66v33.989&#xD;&#xA;&#x9;&#x9;c0,0.363,0.297,0.66,0.66,0.66h40.26c0.363,0,0.66-0.297,0.66-0.66V54.662C147.36,54.299,147.063,54.002,146.7,54.002z"/>
  <linearGradient id="SVGID_63_" gradientUnits="userSpaceOnUse" x1="147.3599" y1="71.6572" x2="150.9902" y2="71.6572">
    <stop offset="0.0123" style="stop-color:#000000;stop-opacity:0.05"/>
    <stop offset="0.8221" style="stop-color:#000000;stop-opacity:0.05"/>
    <stop offset="0.8896" style="stop-color:#000000;stop-opacity:0.3"/>
  </linearGradient>
  <path fill="url(#SVGID_63_)" d="M150.379,54.992h-3.02v33.33h3.02c0.336,0,0.611-0.298,0.611-0.66V55.651&#xD;&#xA;&#x9;&#x9;C150.99,55.289,150.715,54.992,150.379,54.992z"/>
  <g>
    <linearGradient id="SVGID_64_" gradientUnits="userSpaceOnUse" x1="98.0249" y1="57.6318" x2="98.0249" y2="85.6816">
      <stop offset="0" style="stop-color:#FFFFFF;stop-opacity:0"/>
      <stop offset="0.0368" style="stop-color:#FFFFFF;stop-opacity:0.3"/>
      <stop offset="0.1595" style="stop-color:#FFFFFF;stop-opacity:0.55"/>
      <stop offset="0.1963" style="stop-color:#FFFFFF;stop-opacity:0"/>
      <stop offset="0.4969" style="stop-color:#FFFFFF;stop-opacity:0.1"/>
      <stop offset="0.5399" style="stop-color:#000000;stop-opacity:0.35"/>
      <stop offset="0.8405" style="stop-color:#000000;stop-opacity:0.2"/>
      <stop offset="0.8834" style="stop-color:#000000;stop-opacity:0.65"/>
      <stop offset="0.9693" style="stop-color:#000000;stop-opacity:0.45"/>
      <stop offset="1" style="stop-color:#000000;stop-opacity:0.65"/>
    </linearGradient>
    <path fill="url(#SVGID_64_)" d="M105.78,57.632H90.937c-0.367,0-0.667,0.297-0.667,0.66v26.73c0,0.362,0.3,0.659,0.667,0.659&#xD;&#xA;&#x9;&#x9;&#x9;h14.843V57.632z"/>
    <linearGradient id="SVGID_65_" gradientUnits="userSpaceOnUse" x1="154.6201" y1="57.6318" x2="154.6201" y2="85.6816">
      <stop offset="0" style="stop-color:#FFFFFF;stop-opacity:0"/>
      <stop offset="0.0368" style="stop-color:#FFFFFF;stop-opacity:0.3"/>
      <stop offset="0.1595" style="stop-color:#FFFFFF;stop-opacity:0.55"/>
      <stop offset="0.1963" style="stop-color:#FFFFFF;stop-opacity:0"/>
      <stop offset="0.4969" style="stop-color:#FFFFFF;stop-opacity:0.1"/>
      <stop offset="0.5399" style="stop-color:#000000;stop-opacity:0.35"/>
      <stop offset="0.8405" style="stop-color:#000000;stop-opacity:0.2"/>
      <stop offset="0.8834" style="stop-color:#000000;stop-opacity:0.65"/>
      <stop offset="0.9693" style="stop-color:#000000;stop-opacity:0.45"/>
      <stop offset="1" style="stop-color:#000000;stop-opacity:0.65"/>
    </linearGradient>
    <path fill="url(#SVGID_65_)" d="M157.583,57.632h-6.593v28.05h6.593c0.367,0,0.667-0.297,0.667-0.659v-26.73&#xD;&#xA;&#x9;&#x9;&#x9;C158.25,57.929,157.95,57.632,157.583,57.632z"/>
  </g>
  <g>
    <linearGradient id="SVGID_66_" gradientUnits="userSpaceOnUse" x1="148.8447" y1="60.9316" x2="148.8447" y2="62.582">
      <stop offset="0" style="stop-color:#FFFFFF;stop-opacity:0.35"/>
      <stop offset="1" style="stop-color:#FFFFFF;stop-opacity:0.35"/>
    </linearGradient>
    <rect x="147.36" y="60.932" fill="url(#SVGID_66_)" width="2.97" height="1.65"/>
    <linearGradient id="SVGID_67_" gradientUnits="userSpaceOnUse" x1="148.8447" y1="59.9424" x2="148.8447" y2="60.6016">
      <stop offset="0" style="stop-color:#FFFFFF;stop-opacity:0.35"/>
      <stop offset="1" style="stop-color:#FFFFFF;stop-opacity:0.35"/>
    </linearGradient>
    <rect x="147.36" y="59.942" fill="url(#SVGID_67_)" width="2.97" height="0.659"/>
  </g>
  <g>
    <linearGradient id="SVGID_68_" gradientUnits="userSpaceOnUse" x1="116.0103" y1="37.832" x2="136.8003" y2="37.832">
      <stop offset="0" style="stop-color:#000000;stop-opacity:0"/>
      <stop offset="0.0368" style="stop-color:#FFFFFF;stop-opacity:0.2"/>
      <stop offset="0.2025" style="stop-color:#FFFFFF;stop-opacity:0.1"/>
      <stop offset="0.2577" style="stop-color:#000000;stop-opacity:0.15"/>
      <stop offset="0.7669" style="stop-color:#000000;stop-opacity:0"/>
      <stop offset="0.816" style="stop-color:#000000;stop-opacity:0.4"/>
      <stop offset="0.9693" style="stop-color:#000000;stop-opacity:0.2"/>
      <stop offset="1" style="stop-color:#000000;stop-opacity:0.3"/>
    </linearGradient>
    <path fill="url(#SVGID_68_)" d="M118.973,35.852c-0.971,0.177-1.96,0.395-2.962,0.66v3.3h20.79v-3.3c0,0-0.939-0.344-2.64-0.66&#xD;&#xA;&#x9;&#x9;&#x9;H118.973z"/>
    <linearGradient id="SVGID_69_" gradientUnits="userSpaceOnUse" x1="119.3101" y1="25.6221" x2="133.8301" y2="25.6221">
      <stop offset="0" style="stop-color:#000000;stop-opacity:0"/>
      <stop offset="0.0368" style="stop-color:#FFFFFF;stop-opacity:0.2"/>
      <stop offset="0.2025" style="stop-color:#FFFFFF;stop-opacity:0.1"/>
      <stop offset="0.2577" style="stop-color:#000000;stop-opacity:0.15"/>
      <stop offset="0.7669" style="stop-color:#000000;stop-opacity:0"/>
      <stop offset="0.816" style="stop-color:#000000;stop-opacity:0.4"/>
      <stop offset="0.9693" style="stop-color:#000000;stop-opacity:0.2"/>
      <stop offset="1" style="stop-color:#000000;stop-opacity:0.3"/>
    </linearGradient>
    <path fill="url(#SVGID_69_)" d="M133.83,22.982c0-0.363-0.297-0.66-0.66-0.66h-13.2c-0.363,0-0.66,0.297-0.66,0.66v5.279&#xD;&#xA;&#x9;&#x9;&#x9;c0,0.363,0.297,0.66,0.66,0.66h13.2c0.362,0,0.66-0.297,0.66-0.66V22.982z"/>
  </g>
  <linearGradient id="SVGID_70_" gradientUnits="userSpaceOnUse" x1="118.98" y1="34.8613" x2="134.1602" y2="34.8613">
    <stop offset="0.0123" style="stop-color:#000000;stop-opacity:0.3"/>
    <stop offset="0.0736" style="stop-color:#000000;stop-opacity:0.2"/>
    <stop offset="0.1227" style="stop-color:#000000;stop-opacity:0.35"/>
    <stop offset="0.1634" style="stop-color:#393939;stop-opacity:0.3755"/>
    <stop offset="0.2177" style="stop-color:#7F7F7F;stop-opacity:0.4095"/>
    <stop offset="0.2666" style="stop-color:#B6B6B6;stop-opacity:0.4402"/>
    <stop offset="0.3085" style="stop-color:#DEDEDE;stop-opacity:0.4665"/>
    <stop offset="0.3417" style="stop-color:#F6F6F6;stop-opacity:0.4873"/>
    <stop offset="0.362" style="stop-color:#FFFFFF;stop-opacity:0.5"/>
    <stop offset="0.4042" style="stop-color:#F6F6F6;stop-opacity:0.4873"/>
    <stop offset="0.473" style="stop-color:#DEDEDE;stop-opacity:0.4665"/>
    <stop offset="0.56" style="stop-color:#B6B6B6;stop-opacity:0.4402"/>
    <stop offset="0.6617" style="stop-color:#7F7F7F;stop-opacity:0.4095"/>
    <stop offset="0.7743" style="stop-color:#393939;stop-opacity:0.3755"/>
    <stop offset="0.8589" style="stop-color:#000000;stop-opacity:0.35"/>
    <stop offset="0.9325" style="stop-color:#000000;stop-opacity:0.2"/>
    <stop offset="0.9755" style="stop-color:#000000;stop-opacity:0.35"/>
  </linearGradient>
  <rect x="118.98" y="33.872" fill="url(#SVGID_70_)" width="15.18" height="1.979"/>
  <linearGradient id="SVGID_71_" gradientUnits="userSpaceOnUse" x1="118.98" y1="30.0771" x2="134.1602" y2="30.0771">
    <stop offset="0.0123" style="stop-color:#000000;stop-opacity:0.3"/>
    <stop offset="0.0736" style="stop-color:#000000;stop-opacity:0.2"/>
    <stop offset="0.1227" style="stop-color:#000000;stop-opacity:0.35"/>
    <stop offset="0.1634" style="stop-color:#393939;stop-opacity:0.3755"/>
    <stop offset="0.2177" style="stop-color:#7F7F7F;stop-opacity:0.4095"/>
    <stop offset="0.2666" style="stop-color:#B6B6B6;stop-opacity:0.4402"/>
    <stop offset="0.3085" style="stop-color:#DEDEDE;stop-opacity:0.4665"/>
    <stop offset="0.3417" style="stop-color:#F6F6F6;stop-opacity:0.4873"/>
    <stop offset="0.362" style="stop-color:#FFFFFF;stop-opacity:0.5"/>
    <stop offset="0.4042" style="stop-color:#F6F6F6;stop-opacity:0.4873"/>
    <stop offset="0.473" style="stop-color:#DEDEDE;stop-opacity:0.4665"/>
    <stop offset="0.56" style="stop-color:#B6B6B6;stop-opacity:0.4402"/>
    <stop offset="0.6617" style="stop-color:#7F7F7F;stop-opacity:0.4095"/>
    <stop offset="0.7743" style="stop-color:#393939;stop-opacity:0.3755"/>
    <stop offset="0.8589" style="stop-color:#000000;stop-opacity:0.35"/>
    <stop offset="0.9325" style="stop-color:#000000;stop-opacity:0.2"/>
    <stop offset="0.9755" style="stop-color:#000000;stop-opacity:0.35"/>
  </linearGradient>
  <path fill="url(#SVGID_71_)" d="M134.16,30.077c0-0.636-0.743-1.155-1.65-1.155h-11.88c-0.908,0-1.65,0.52-1.65,1.155&#xD;&#xA;&#x9;&#x9;c0,0.635,0.743,1.155,1.65,1.155h11.88C133.417,31.232,134.16,30.712,134.16,30.077z"/>
  <linearGradient id="SVGID_72_" gradientUnits="userSpaceOnUse" x1="126.5703" y1="28.9219" x2="126.5703" y2="31.2324">
    <stop offset="0.0368" style="stop-color:#000000;stop-opacity:0.1"/>
    <stop offset="0.0859" style="stop-color:#000000;stop-opacity:0.2"/>
    <stop offset="0.1595" style="stop-color:#FFFFFF;stop-opacity:0"/>
    <stop offset="0.2638" style="stop-color:#FFFFFF;stop-opacity:0.5"/>
    <stop offset="0.3313" style="stop-color:#FFFFFF;stop-opacity:0.7"/>
    <stop offset="0.411" style="stop-color:#FFFFFF;stop-opacity:0.4429"/>
    <stop offset="0.4847" style="stop-color:#FFFFFF;stop-opacity:0.2778"/>
    <stop offset="0.6687" style="stop-color:#000000;stop-opacity:0.45"/>
    <stop offset="0.816" style="stop-color:#000000;stop-opacity:0.2"/>
    <stop offset="0.9755" style="stop-color:#000000;stop-opacity:0.5"/>
  </linearGradient>
  <path fill="url(#SVGID_72_)" d="M134.16,30.077c0-0.636-0.743-1.155-1.65-1.155h-11.88c-0.908,0-1.65,0.52-1.65,1.155&#xD;&#xA;&#x9;&#x9;c0,0.635,0.743,1.155,1.65,1.155h11.88C133.417,31.232,134.16,30.712,134.16,30.077z"/>
  <linearGradient id="SVGID_73_" gradientUnits="userSpaceOnUse" x1="126.4053" y1="35.8516" x2="126.4053" y2="39.8115">
    <stop offset="0.0429" style="stop-color:#FFFFFF;stop-opacity:0.3"/>
    <stop offset="0.135" style="stop-color:#FFFFFF;stop-opacity:0"/>
    <stop offset="0.3006" style="stop-color:#000000;stop-opacity:0"/>
    <stop offset="0.8405" style="stop-color:#000000;stop-opacity:0"/>
    <stop offset="0.9141" style="stop-color:#000000;stop-opacity:0.35"/>
  </linearGradient>
  <path fill="url(#SVGID_73_)" d="M118.973,35.852c-0.971,0.177-1.96,0.395-2.962,0.66v3.3h20.79v-3.3c0,0-0.939-0.344-2.64-0.66&#xD;&#xA;&#x9;&#x9;H118.973z"/>
  <linearGradient id="SVGID_74_" gradientUnits="userSpaceOnUse" x1="126.5703" y1="22.3223" x2="126.5703" y2="28.9219">
    <stop offset="0.0429" style="stop-color:#FFFFFF;stop-opacity:0.2"/>
    <stop offset="0.0982" style="stop-color:#000000;stop-opacity:0.12"/>
    <stop offset="0.9202" style="stop-color:#000000;stop-opacity:0"/>
    <stop offset="0.9693" style="stop-color:#000000;stop-opacity:0.3"/>
  </linearGradient>
  <path fill="url(#SVGID_74_)" d="M133.83,22.982c0-0.363-0.297-0.66-0.66-0.66h-13.2c-0.363,0-0.66,0.297-0.66,0.66v5.279&#xD;&#xA;&#x9;&#x9;c0,0.363,0.297,0.66,0.66,0.66h13.2c0.362,0,0.66-0.297,0.66-0.66V22.982z"/>
  <linearGradient id="SVGID_75_" gradientUnits="userSpaceOnUse" x1="126.5703" y1="33.8721" x2="126.5703" y2="35.8516">
    <stop offset="0.1104" style="stop-color:#FFFFFF;stop-opacity:0.2"/>
    <stop offset="0.2086" style="stop-color:#000000;stop-opacity:0.12"/>
    <stop offset="0.7607" style="stop-color:#000000;stop-opacity:0"/>
    <stop offset="0.865" style="stop-color:#000000;stop-opacity:0.3"/>
  </linearGradient>
  <rect x="118.98" y="33.872" fill="url(#SVGID_75_)" width="15.18" height="1.979"/>
  <linearGradient id="SVGID_76_" gradientUnits="userSpaceOnUse" x1="90.27" y1="71.6563" x2="105.7798" y2="71.6563">
    <stop offset="0.0368" style="stop-color:#000000;stop-opacity:0.1"/>
    <stop offset="0.0491" style="stop-color:#000000;stop-opacity:0"/>
    <stop offset="0.9387" style="stop-color:#000000;stop-opacity:0"/>
    <stop offset="0.9509" style="stop-color:#000000;stop-opacity:0.3"/>
  </linearGradient>
  <path fill="url(#SVGID_76_)" d="M105.78,57.632H90.937c-0.367,0-0.667,0.297-0.667,0.66v26.73c0,0.362,0.3,0.659,0.667,0.659&#xD;&#xA;&#x9;&#x9;h14.843V57.632z"/>
  <linearGradient id="SVGID_77_" gradientUnits="userSpaceOnUse" x1="150.9902" y1="71.6563" x2="158.2505" y2="71.6563">
    <stop offset="0.0798" style="stop-color:#000000;stop-opacity:0.3"/>
    <stop offset="0.1104" style="stop-color:#000000;stop-opacity:0"/>
    <stop offset="0.9018" style="stop-color:#000000;stop-opacity:0"/>
    <stop offset="0.9632" style="stop-color:#000000;stop-opacity:0.2"/>
  </linearGradient>
  <path fill="url(#SVGID_77_)" d="M157.583,57.632h-6.593v28.05h6.593c0.367,0,0.667-0.297,0.667-0.659v-26.73&#xD;&#xA;&#x9;&#x9;C158.25,57.929,157.95,57.632,157.583,57.632z"/>
  <linearGradient id="SVGID_78_" gradientUnits="userSpaceOnUse" x1="114.6899" y1="48.6387" x2="138.1201" y2="48.6387">
    <stop offset="0.0123" style="stop-color:#000000;stop-opacity:0.3"/>
    <stop offset="0.0736" style="stop-color:#000000;stop-opacity:0.2"/>
    <stop offset="0.1227" style="stop-color:#000000;stop-opacity:0.35"/>
    <stop offset="0.1634" style="stop-color:#393939;stop-opacity:0.3755"/>
    <stop offset="0.2177" style="stop-color:#7F7F7F;stop-opacity:0.4095"/>
    <stop offset="0.2666" style="stop-color:#B6B6B6;stop-opacity:0.4402"/>
    <stop offset="0.3085" style="stop-color:#DEDEDE;stop-opacity:0.4665"/>
    <stop offset="0.3417" style="stop-color:#F6F6F6;stop-opacity:0.4873"/>
    <stop offset="0.362" style="stop-color:#FFFFFF;stop-opacity:0.5"/>
    <stop offset="0.4042" style="stop-color:#F6F6F6;stop-opacity:0.4873"/>
    <stop offset="0.473" style="stop-color:#DEDEDE;stop-opacity:0.4665"/>
    <stop offset="0.56" style="stop-color:#B6B6B6;stop-opacity:0.4402"/>
    <stop offset="0.6617" style="stop-color:#7F7F7F;stop-opacity:0.4095"/>
    <stop offset="0.7743" style="stop-color:#393939;stop-opacity:0.3755"/>
    <stop offset="0.8589" style="stop-color:#000000;stop-opacity:0.35"/>
    <stop offset="0.9325" style="stop-color:#000000;stop-opacity:0.2"/>
    <stop offset="0.9755" style="stop-color:#000000;stop-opacity:0.35"/>
  </linearGradient>
  <path fill="url(#SVGID_78_)" d="M137.295,39.812h-21.45c-0.545,0-1.155,0.415-1.155,0.922v8.979v2.379v0.921v0.99&#xD;&#xA;&#x9;&#x9;c11.88,4.62,11.55,4.62,23.43,0v-0.99v-0.921v-2.379v-8.979C138.12,40.227,137.84,39.812,137.295,39.812z M121.62,46.412&#xD;&#xA;&#x9;&#x9;c0,0.362-0.297,0.66-0.66,0.66h-1.65c-0.363,0-0.957,0-1.32,0s-0.957,0-1.32,0c-0.363,0-0.66-0.298-0.66-0.66v-3.96&#xD;&#xA;&#x9;&#x9;c0-0.363,0.297-0.66,0.66-0.66c0.363,0,0.957,0,1.32,0s0.957,0,1.32,0h1.65c0.363,0,0.66,0.297,0.66,0.66V46.412z"/>
  <linearGradient id="SVGID_79_" gradientUnits="userSpaceOnUse" x1="118.8154" y1="41.792" x2="118.8154" y2="47.0723">
    <stop offset="0" style="stop-color:#FFFFFF;stop-opacity:0"/>
    <stop offset="0.0613" style="stop-color:#FFFFFF;stop-opacity:0.35"/>
    <stop offset="0.1656" style="stop-color:#FFFFFF;stop-opacity:0"/>
    <stop offset="0.2209" style="stop-color:#000000;stop-opacity:0"/>
    <stop offset="0.2638" style="stop-color:#000000;stop-opacity:0"/>
    <stop offset="0.816" style="stop-color:#000000;stop-opacity:0.1"/>
    <stop offset="0.9816" style="stop-color:#000000;stop-opacity:0.35"/>
  </linearGradient>
  <path fill="url(#SVGID_79_)" d="M119.31,41.792c-0.363,0-0.957,0-1.32,0l0,0c-0.363,0-0.957,0-1.32,0l0,0&#xD;&#xA;&#x9;&#x9;c-0.363,0-0.66,0.297-0.66,0.66v3.96c0,0.362,0.297,0.66,0.66,0.66l0,0c0.363,0,0.957,0,1.32,0l0,0c0.363,0,0.957,0,1.32,0h1.65&#xD;&#xA;&#x9;&#x9;c0.363,0,0.66-0.298,0.66-0.66v-3.96c0-0.363-0.297-0.66-0.66-0.66H119.31z"/>
  <linearGradient id="SVGID_80_" gradientUnits="userSpaceOnUse" x1="126.4053" y1="39.8115" x2="126.4053" y2="57.4668">
    <stop offset="0" style="stop-color:#FFFFFF;stop-opacity:0"/>
    <stop offset="0.0184" style="stop-color:#FFFFFF;stop-opacity:0.2"/>
    <stop offset="0.1288" style="stop-color:#000000;stop-opacity:0.12"/>
    <stop offset="0.5583" style="stop-color:#000000;stop-opacity:0"/>
  </linearGradient>
  <path fill="url(#SVGID_80_)" d="M137.295,39.812h-21.45c-0.545,0-1.155,0.415-1.155,0.922v8.979v2.379v0.921v0.99&#xD;&#xA;&#x9;&#x9;c11.88,4.62,11.55,4.62,23.43,0v-0.99v-0.921v-2.379v-8.979C138.12,40.227,137.84,39.812,137.295,39.812z M121.62,46.412&#xD;&#xA;&#x9;&#x9;c0,0.362-0.297,0.66-0.66,0.66h-1.65c-0.363,0-0.957,0-1.32,0s-0.957,0-1.32,0c-0.363,0-0.66-0.298-0.66-0.66v-3.96&#xD;&#xA;&#x9;&#x9;c0-0.363,0.297-0.66,0.66-0.66c0.363,0,0.957,0,1.32,0s0.957,0,1.32,0h1.65c0.363,0,0.66,0.297,0.66,0.66V46.412z"/>
  <linearGradient id="SVGID_81_" gradientUnits="userSpaceOnUse" x1="126.4053" y1="33.8721" x2="126.4053" y2="38.4922">
    <stop offset="0.3374" style="stop-color:#000000;stop-opacity:0.4"/>
    <stop offset="0.5951" style="stop-color:#000000;stop-opacity:0.4"/>
  </linearGradient>
  <path fill="url(#SVGID_81_)" d="M118.98,33.872h15.18v1.979l2.64,0.66v1.98c0,0-3.383-1.237-3.795-1.403&#xD;&#xA;&#x9;&#x9;c-0.413-0.164-1.155-0.247-1.567-0.247c-0.413,0-9.488,0-9.488,0s-1.352,0.11-1.98,0.33c-2.561,0.897-3.96,1.32-3.96,1.32v-1.98&#xD;&#xA;&#x9;&#x9;l2.97-0.66V33.872z"/>
  <linearGradient id="SVGID_82_" gradientUnits="userSpaceOnUse" x1="116.0103" y1="44.4316" x2="121.6201" y2="44.4316">
    <stop offset="0" style="stop-color:#000000;stop-opacity:0.15"/>
    <stop offset="0.135" style="stop-color:#000000;stop-opacity:0.1"/>
    <stop offset="0.3865" style="stop-color:#FFFFFF;stop-opacity:0"/>
    <stop offset="0.454" style="stop-color:#000000;stop-opacity:0"/>
    <stop offset="0.6012" style="stop-color:#000000;stop-opacity:0"/>
    <stop offset="0.8528" style="stop-color:#000000;stop-opacity:0"/>
    <stop offset="0.8773" style="stop-color:#000000;stop-opacity:0.1"/>
    <stop offset="0.9816" style="stop-color:#000000;stop-opacity:0.35"/>
  </linearGradient>
  <path fill="url(#SVGID_82_)" d="M119.31,41.792c-0.363,0-0.957,0-1.32,0l0,0c-0.363,0-0.958,0-1.32,0l0,0&#xD;&#xA;&#x9;&#x9;c-0.363,0-0.66,0.297-0.66,0.66v3.96c0,0.362,0.297,0.66,0.66,0.66l0,0c0.362,0,0.957,0,1.32,0l0,0c0.363,0,0.957,0,1.32,0h1.65&#xD;&#xA;&#x9;&#x9;c0.362,0,0.66-0.298,0.66-0.66v-3.96c0-0.363-0.297-0.66-0.66-0.66H119.31z"/>
  <linearGradient id="SVGID_83_" gradientUnits="userSpaceOnUse" x1="118.8242" y1="46.6592" x2="118.8242" y2="50.0449">
    <stop offset="0" style="stop-color:#000000;stop-opacity:0.4"/>
    <stop offset="1" style="stop-color:#000000;stop-opacity:0.3"/>
  </linearGradient>
  <path fill="url(#SVGID_83_)" d="M116.34,47.072c0,0-0.231-0.165-0.281-0.413c-0.049,1.485-0.089,3.468,0.157,3.383&#xD;&#xA;&#x9;&#x9;c3.053-1.113,5.405-1.09,5.409-1.411s-0.011-1.83-0.005-1.972c-0.156,0.416-0.66,0.413-0.66,0.413H116.34z"/>
  <g>
    <linearGradient id="SVGID_84_" gradientUnits="userSpaceOnUse" x1="106.4399" y1="61.0977" x2="146.7002" y2="61.0977">
      <stop offset="0" style="stop-color:#FFFFFF;stop-opacity:0.35"/>
      <stop offset="1" style="stop-color:#FFFFFF;stop-opacity:0.35"/>
    </linearGradient>
    <rect x="106.44" y="60.272" fill="url(#SVGID_84_)" width="40.26" height="1.649"/>
    <linearGradient id="SVGID_85_" gradientUnits="userSpaceOnUse" x1="106.4399" y1="59.6123" x2="146.7002" y2="59.6123">
      <stop offset="0" style="stop-color:#FFFFFF;stop-opacity:0.35"/>
      <stop offset="1" style="stop-color:#FFFFFF;stop-opacity:0.35"/>
    </linearGradient>
    <rect x="106.44" y="59.282" fill="url(#SVGID_85_)" width="40.26" height="0.66"/>
  </g>
  <linearGradient id="SVGID_86_" gradientUnits="userSpaceOnUse" x1="115.3501" y1="40.1416" x2="137.1304" y2="40.1416">
    <stop offset="0.1288" style="stop-color:#FFFFFF;stop-opacity:0"/>
    <stop offset="0.3497" style="stop-color:#FFFFFF;stop-opacity:0.35"/>
    <stop offset="0.7791" style="stop-color:#FFFFFF;stop-opacity:0"/>
  </linearGradient>
  <rect x="115.35" y="39.812" fill="url(#SVGID_86_)" width="21.78" height="0.66"/>
  <linearGradient id="SVGID_87_" gradientUnits="userSpaceOnUse" x1="107.2178" y1="22.7305" x2="102.6034" y2="27.593">
    <stop offset="0.0859" style="stop-color:#FFFFFF;stop-opacity:0.2"/>
    <stop offset="0.1963" style="stop-color:#000000;stop-opacity:0.2"/>
    <stop offset="0.8098" style="stop-color:#000000;stop-opacity:0"/>
    <stop offset="0.9448" style="stop-color:#000000;stop-opacity:0.35"/>
  </linearGradient>
  <polygon fill="url(#SVGID_87_)" points="109.401,33.9 95.905,21.236 100.421,16.423 113.917,29.088 &#x9;"/>
  <linearGradient id="SVGID_88_" gradientUnits="userSpaceOnUse" x1="77.3999" y1="11.8838" x2="99.1245" y2="11.8838">
    <stop offset="0" style="stop-color:#000000;stop-opacity:0"/>
    <stop offset="1" style="stop-color:#000000;stop-opacity:0.05"/>
  </linearGradient>
  <path fill="url(#SVGID_88_)" d="M97.328,19.72l1.797-1.915c-0.339-0.32-0.678-0.643-1.016-0.963&#xD;&#xA;&#x9;&#x9;c-4.972-4.716-9.688-9.17-10.975-10.285l-0.101-0.049c-2.511-1.931-4.353-2.46-9.633-2.46v2.641c4.95,0,6.142,0.472,7.992,1.889&#xD;&#xA;&#x9;&#x9;c1.287,1.122,6.225,5.726,10.92,10.18C96.653,19.08,96.991,19.4,97.328,19.72z"/>
  <linearGradient id="SVGID_89_" gradientUnits="userSpaceOnUse" x1="77.3999" y1="13.0391" x2="97.5532" y2="13.0391">
    <stop offset="0" style="stop-color:#000000;stop-opacity:0.25"/>
    <stop offset="1" style="stop-color:#000000;stop-opacity:0.25"/>
  </linearGradient>
  <path fill="url(#SVGID_89_)" d="M97.328,19.72l0.226-0.24c-0.327-0.31-0.655-0.622-0.986-0.936l-0.028-0.026&#xD;&#xA;&#x9;&#x9;c-4.754-4.509-9.657-9.08-10.931-10.189c-1.951-1.494-3.581-1.949-8.209-1.969v0.329c4.95,0,6.142,0.472,7.992,1.889&#xD;&#xA;&#x9;&#x9;c1.287,1.122,6.225,5.726,10.92,10.18C96.653,19.08,96.991,19.4,97.328,19.72z"/>
  <linearGradient id="SVGID_90_" gradientUnits="userSpaceOnUse" x1="77.3999" y1="11.0469" x2="99.1245" y2="11.0469">
    <stop offset="0" style="stop-color:#FFFFFF;stop-opacity:0.25"/>
    <stop offset="1" style="stop-color:#FFFFFF;stop-opacity:0.2"/>
  </linearGradient>
  <path fill="url(#SVGID_90_)" d="M98.899,18.046l0.226-0.241c-0.339-0.32-0.678-0.643-1.016-0.963&#xD;&#xA;&#x9;&#x9;c-4.972-4.716-9.688-9.17-10.975-10.285l-0.101-0.049c-2.511-1.931-4.353-2.46-9.633-2.46v0.331&#xD;&#xA;&#x9;&#x9;c4.833,0.021,6.987,0.511,9.432,2.391l0.027,0.021l0.092,0.044c1.399,1.219,6.57,6.109,10.931,10.246&#xD;&#xA;&#x9;&#x9;C98.219,17.4,98.558,17.723,98.899,18.046z"/>
  <linearGradient id="SVGID_91_" gradientUnits="userSpaceOnUse" x1="110.8525" y1="40.2305" x2="142.0801" y2="40.2305">
    <stop offset="0" style="stop-color:#000000;stop-opacity:0.1"/>
    <stop offset="1" style="stop-color:#000000;stop-opacity:0.15"/>
  </linearGradient>
  <path fill="url(#SVGID_91_)" d="M136.8,31.232h-22.11c-0.684,0-1.312-0.285-2.022-0.814l-1.815,1.936&#xD;&#xA;&#x9;&#x9;c1.151,0.905,2.351,1.519,3.837,1.519h22.11c1.825,0,2.64,0.813,2.64,2.64v13.53h2.64v-13.53&#xD;&#xA;&#x9;&#x9;C142.08,33.206,140.106,31.232,136.8,31.232z"/>
  <linearGradient id="SVGID_92_" gradientUnits="userSpaceOnUse" x1="136.1401" y1="40.6367" x2="142.0801" y2="40.6367">
    <stop offset="0" style="stop-color:#000000;stop-opacity:0"/>
    <stop offset="0.0613" style="stop-color:#000000;stop-opacity:0.35"/>
    <stop offset="0.3865" style="stop-color:#000000;stop-opacity:0"/>
    <stop offset="1" style="stop-color:#000000;stop-opacity:0"/>
  </linearGradient>
  <path fill="url(#SVGID_92_)" d="M136.8,31.232h-0.66v2.64h0.66c1.825,0,2.64,0.813,2.64,2.64v13.53h2.64v-13.53&#xD;&#xA;&#x9;&#x9;C142.08,33.206,140.106,31.232,136.8,31.232z"/>
  <linearGradient id="SVGID_93_" gradientUnits="userSpaceOnUse" x1="110.8525" y1="41.0762" x2="141.7505" y2="41.0762">
    <stop offset="0" style="stop-color:#000000;stop-opacity:0.25"/>
    <stop offset="1" style="stop-color:#000000;stop-opacity:0.35"/>
  </linearGradient>
  <path fill="url(#SVGID_93_)" d="M139.77,49.712v-13.2c0-1.998-0.972-2.97-2.97-2.97h-22.11c-1.379,0-2.514-0.576-3.609-1.432&#xD;&#xA;&#x9;&#x9;l-0.228,0.243c1.151,0.905,2.351,1.519,3.837,1.519h22.11c1.825,0,2.64,0.813,2.64,2.64v13.53h2.311v-0.33H139.77z"/>
  <linearGradient id="SVGID_94_" gradientUnits="userSpaceOnUse" x1="112.4395" y1="33.1133" x2="142.0454" y2="33.1133">
    <stop offset="0" style="stop-color:#FFFFFF;stop-opacity:0.2"/>
    <stop offset="1" style="stop-color:#FFFFFF;stop-opacity:0.2"/>
  </linearGradient>
  <path fill="url(#SVGID_94_)" d="M136.8,31.232h-22.11c-0.684,0-1.312-0.285-2.022-0.814l-0.229,0.244&#xD;&#xA;&#x9;&#x9;c0.777,0.586,1.469,0.9,2.25,0.9h22.11c2.393,0,4.007,1.046,4.644,2.932c0.212,0.372,0.405,0.801,0.602,1.314&#xD;&#xA;&#x9;&#x9;C141.781,32.93,139.864,31.232,136.8,31.232z"/>
  <linearGradient id="SVGID_95_" gradientUnits="userSpaceOnUse" x1="141.4438" y1="42.2676" x2="142.0801" y2="42.2676">
    <stop offset="0" style="stop-color:#000000;stop-opacity:0.2"/>
    <stop offset="1" style="stop-color:#000000;stop-opacity:0.2"/>
  </linearGradient>
  <path fill="url(#SVGID_95_)" d="M142.045,35.809c-0.197-0.514-0.39-0.942-0.602-1.314c0.2,0.592,0.307,1.266,0.307,2.018v13.53&#xD;&#xA;&#x9;&#x9;h0.33v-13.53C142.08,36.27,142.066,36.037,142.045,35.809z"/>
  <linearGradient id="SVGID_96_" gradientUnits="userSpaceOnUse" x1="113.4629" y1="31.0264" x2="111.5632" y2="33.0282">
    <stop offset="0.3374" style="stop-color:#000000;stop-opacity:0.4"/>
    <stop offset="0.5951" style="stop-color:#000000;stop-opacity:0.4"/>
  </linearGradient>
  <path fill="url(#SVGID_96_)" d="M113.199,30.775l-0.633,2.641c0,0-0.601-0.271-1.713-1.063l1.815-1.936L113.199,30.775z"/>
  <linearGradient id="SVGID_97_" gradientUnits="userSpaceOnUse" x1="98.1851" y1="18.7793" x2="111.6371" y2="31.5448">
    <stop offset="0" style="stop-color:#FFFFFF;stop-opacity:0.3"/>
    <stop offset="0.0184" style="stop-color:#FFFFFF;stop-opacity:0"/>
    <stop offset="0.9755" style="stop-color:#000000;stop-opacity:0"/>
    <stop offset="1" style="stop-color:#000000;stop-opacity:0.35"/>
  </linearGradient>
  <polygon fill="url(#SVGID_97_)" points="109.401,33.9 95.905,21.236 100.421,16.423 113.917,29.088 &#x9;"/>
  <g>
    <linearGradient id="SVGID_98_" gradientUnits="userSpaceOnUse" x1="138.7803" y1="41.792" x2="138.7803" y2="47.0723">
      <stop offset="0" style="stop-color:#FFFFFF;stop-opacity:0.3"/>
      <stop offset="0.0552" style="stop-color:#FFFFFF;stop-opacity:0"/>
      <stop offset="0.0552" style="stop-color:#000000;stop-opacity:0"/>
      <stop offset="0.0798" style="stop-color:#000000;stop-opacity:0.15"/>
      <stop offset="0.9509" style="stop-color:#000000;stop-opacity:0.25"/>
      <stop offset="0.9939" style="stop-color:#000000;stop-opacity:0.4"/>
    </linearGradient>
    <rect x="138.12" y="41.792" fill="url(#SVGID_98_)" width="1.32" height="5.28"/>
    <linearGradient id="SVGID_99_" gradientUnits="userSpaceOnUse" x1="142.5752" y1="41.792" x2="142.5752" y2="47.0723">
      <stop offset="0" style="stop-color:#FFFFFF;stop-opacity:0.3"/>
      <stop offset="0.0552" style="stop-color:#FFFFFF;stop-opacity:0"/>
      <stop offset="0.0552" style="stop-color:#000000;stop-opacity:0"/>
      <stop offset="0.0798" style="stop-color:#000000;stop-opacity:0.15"/>
      <stop offset="0.9509" style="stop-color:#000000;stop-opacity:0.25"/>
      <stop offset="0.9939" style="stop-color:#000000;stop-opacity:0.4"/>
    </linearGradient>
    <path fill="url(#SVGID_99_)" d="M142.41,41.792h-0.33v5.28h0.33c0.363,0,0.66-0.298,0.66-0.66v-3.96&#xD;&#xA;&#x9;&#x9;&#x9;C143.07,42.089,142.773,41.792,142.41,41.792z"/>
  </g>
  <linearGradient id="SVGID_100_" gradientUnits="userSpaceOnUse" x1="1.5" y1="5.2441" x2="77.3999" y2="5.2441">
    <stop offset="0" style="stop-color:#FFFFFF;stop-opacity:0"/>
    <stop offset="0.092" style="stop-color:#FFFFFF;stop-opacity:0.35"/>
    <stop offset="0.2086" style="stop-color:#FFFFFF;stop-opacity:0"/>
    <stop offset="0.3681" style="stop-color:#000000;stop-opacity:0"/>
    <stop offset="0.7975" style="stop-color:#000000;stop-opacity:0"/>
    <stop offset="0.9877" style="stop-color:#000000;stop-opacity:0"/>
    <stop offset="1" style="stop-color:#000000;stop-opacity:0.3"/>
  </linearGradient>
  <path fill="url(#SVGID_100_)" d="M77.4,4.502v-0.99c0,0-0.165-0.888-1.814-0.856c-1.65,0.032-49.995-0.958-59.4-0.958&#xD;&#xA;&#x9;&#x9;S1.5,3.842,1.5,5.327s0.825,3.465,14.19,3.465c13.365,0,57.915-0.825,59.565-0.825c1.649,0,2.145,0.082,2.145-0.949&#xD;&#xA;&#x9;&#x9;S77.4,4.502,77.4,4.502z"/>
  <linearGradient id="SVGID_101_" gradientUnits="userSpaceOnUse" x1="39.4502" y1="1.6973" x2="39.4502" y2="8.792">
    <stop offset="0.0307" style="stop-color:#FFFFFF;stop-opacity:0.3"/>
    <stop offset="0.1902" style="stop-color:#FFFFFF;stop-opacity:0"/>
    <stop offset="0.3252" style="stop-color:#000000;stop-opacity:0"/>
    <stop offset="0.4724" style="stop-color:#000000;stop-opacity:0.2"/>
    <stop offset="0.638" style="stop-color:#000000;stop-opacity:0.18"/>
    <stop offset="0.7178" style="stop-color:#000000;stop-opacity:0.4"/>
    <stop offset="0.8712" style="stop-color:#000000;stop-opacity:0.55"/>
    <stop offset="0.9755" style="stop-color:#000000;stop-opacity:0.6"/>
  </linearGradient>
  <path fill="url(#SVGID_101_)" d="M77.4,4.502v-0.99c0,0-0.165-0.888-1.814-0.856c-1.65,0.032-49.995-0.958-59.4-0.958&#xD;&#xA;&#x9;&#x9;S1.5,3.842,1.5,5.327s0.825,3.465,14.19,3.465c13.365,0,57.915-0.825,59.565-0.825c1.649,0,2.145,0.082,2.145-0.949&#xD;&#xA;&#x9;&#x9;S77.4,4.502,77.4,4.502z"/>
  <linearGradient id="SVGID_102_" gradientUnits="userSpaceOnUse" x1="3.6445" y1="3.8652" x2="76.0098" y2="3.8652">
    <stop offset="0" style="stop-color:#FFFFFF;stop-opacity:0.45"/>
    <stop offset="1" style="stop-color:#FFFFFF;stop-opacity:0.35"/>
  </linearGradient>
  <path fill="url(#SVGID_102_)" d="M3.748,4.074c3.05-1.165,7.487-1.305,14.17-1.246c6.683,0.058,30.03,0.689,37.703,0.75&#xD;&#xA;&#x9;&#x9;c7.672,0.062,20.047-0.402,20.377,0.496S70.14,4.509,49.35,4.625C28.56,4.74,10.245,4.914,6.533,4.914&#xD;&#xA;&#x9;&#x9;C2.82,4.914,3.748,4.074,3.748,4.074z"/>
  <linearGradient id="SVGID_103_" gradientUnits="userSpaceOnUse" x1="3.9746" y1="7.6768" x2="76.3398" y2="7.6768">
    <stop offset="0" style="stop-color:#FFFFFF;stop-opacity:0.2"/>
    <stop offset="1" style="stop-color:#FFFFFF;stop-opacity:0.15"/>
  </linearGradient>
  <path fill="url(#SVGID_103_)" d="M4.078,7.384c3.049,0.341,7.487,0.848,14.17,0.831c6.683-0.018,30.03-0.668,37.703-0.686&#xD;&#xA;&#x9;&#x9;s20.047,0.117,20.377-0.146S70.47,7.258,49.68,7.224S10.575,7.139,6.863,7.139C3.15,7.139,4.078,7.384,4.078,7.384z"/>
  <linearGradient id="SVGID_104_" gradientUnits="userSpaceOnUse" x1="116.0103" y1="36.1816" x2="136.8003" y2="36.1816">
    <stop offset="0" style="stop-color:#FFFFFF;stop-opacity:0.45"/>
    <stop offset="1" style="stop-color:#FFFFFF;stop-opacity:0.3"/>
  </linearGradient>
  <path fill="url(#SVGID_104_)" d="M116.01,36.512l2.97-0.66h15.18l2.64,0.66c-2.393-0.289-3.836,0-4.125,0&#xD;&#xA;&#x9;&#x9;c-0.289,0-2.187-0.33-6.271-0.33c-4.083,0-5.321,0.33-5.651,0.33S118.403,36.141,116.01,36.512z"/>
</svg>