<svg version="1.2" baseProfile="tiny" viewBox="0 0 33.14 46.165" xmlns:xlink="http://www.w3.org/1999/xlink" xmlns="http://www.w3.org/2000/svg">
<path style="fill:#ffffff;" d="M16.9839,3.5552L20.6741,3.5552C20.6741,3.5552,20.6741,3.094,20.6741,2.8461C20.6741,2.5968,20.283,2.5968,20.283,2.5968C20.283,2.5968,20.283,1.781,20.283,1.4971C20.284,1.2132,20.2489,0.9999,19.717,0.9999C19.1851,0.9999,16.9849,0.9999,16.9849,0.9999C16.9849,0.9999,14.7851,0.9999,14.2529,0.9999C13.721,0.9999,13.6862,1.2132,13.6862,1.4971C13.6862,1.781,13.6862,2.5968,13.6862,2.5968C13.6862,2.5968,13.2951,2.5968,13.2951,2.8461C13.2951,3.094,13.2951,3.5552,13.2951,3.5552L16.9839,3.5552L16.9839,3.5552Z"/>
</svg>