<svg version="1.2" baseProfile="tiny" viewBox="0 0 33.14 46.165" xmlns:xlink="http://www.w3.org/1999/xlink" xmlns="http://www.w3.org/2000/svg">
<path style="fill:#ffffff;" d="M32.1398,36.6859C32.1398,37.2579,31.8601,37.4029,31.8601,37.762C31.8601,38.1212,32.0689,38.4079,31.652,40.0611C31.2361,41.7152,29.5678,45.1651,29.0101,45.1651C28.456,45.1651,19.9731,45.1651,19.3501,45.1651C18.7241,45.1651,17.3442,43.1218,16.568,43.1218C15.7929,43.1218,14.4149,45.1651,13.7879,45.1651C13.1639,45.1651,4.684,45.1651,4.1279,45.1651C3.5722,45.1651,1.9029,41.7161,1.487,40.0611C1.0701,38.4088,1.2789,38.1221,1.2789,37.762C1.2789,37.402,1.0002,37.2579,1.0002,36.6859C1.0002,36.1098,1.0002,30.7191,1.0002,29.6412C1.0002,28.5632,2.3639,25.9041,3.372,21.0162C4.3771,16.1291,5.4558,11.9609,5.6709,10.954C5.886,9.949,5.8161,9.4449,5.9579,9.2288C6.1031,9.0128,8.115,7.6482,9.6961,6.928C11.2759,6.2101,12.966,5.5629,12.966,5.5629C12.966,5.5629,12.86,5.4558,12.966,5.2762C13.0741,5.0962,13.3959,5.2042,13.3959,4.9161C13.3959,4.628,13.0012,4.628,13.0012,4.2689C13.0012,3.6941,13.1811,3.6941,13.9731,3.6941C14.1889,3.6941,14.2071,3.5861,14.2071,3.4601C14.2071,3.334,13.8631,3.371,13.8631,3.1189C13.8631,2.8678,14.1879,2.9398,14.1879,2.7602C14.1879,2.5811,14.1879,2.113,14.1879,1.9329C14.1879,1.7538,14.2939,1.7178,14.7271,1.7178C15.1579,1.7178,16.9919,1.7178,16.9919,1.7178C16.9919,1.7178,18.8229,1.7178,19.255,1.7178C19.6871,1.7178,19.7939,1.7552,19.7939,1.9329C19.7939,2.113,19.7939,2.5802,19.7939,2.7602C19.7939,2.9398,20.116,2.8678,20.116,3.1189C20.116,3.371,19.775,3.334,19.775,3.4601C19.775,3.5861,19.7939,3.6941,20.0089,3.6941C20.799,3.6941,20.9799,3.6941,20.9799,4.2689C20.9799,4.628,20.5839,4.628,20.5839,4.9161C20.5839,5.2042,20.908,5.0962,21.0151,5.2762C21.1231,5.4558,21.0151,5.5629,21.0151,5.5629C21.0151,5.5629,22.1031,6.2092,23.5678,7.144C25.256,8.2229,28.168,10.4148,28.9939,10.9531C29.822,11.4919,29.9831,11.7462,30.3251,13.3962C30.8272,15.8401,31.2941,18.2481,31.4741,20.6191C31.652,22.9929,32.1398,29.6061,32.1398,36.6859M7.9009,12.008C7.5629,13.254,7.036,17.3271,7.036,19.1949C7.036,21.0642,7.3239,22.5022,8.0431,22.5982C8.7609,22.6929,9.8151,21.1122,10.2949,19.3879C10.7741,17.6632,11.3501,14.0702,11.4439,12.6801C11.54,11.2901,10.859,10.3779,10.006,10.2362C8.856,10.0432,8.235,10.7629,7.9009,12.008Z"/>
</svg>