<svg version="1.2" baseProfile="tiny" viewBox="0 0 30.339 43.047" xmlns:xlink="http://www.w3.org/1999/xlink" xmlns="http://www.w3.org/2000/svg">
<path style="fill:#ffffff;" d="M2.727,43.046c-0.364-0.237-1.841-3.161-2.253-4.801c-0.309-1.226-0.255-1.641-0.22-1.915   c0.014-0.103,0.024-0.192,0.024-0.286c0-0.247-0.085-0.429-0.153-0.575C0.055,35.318,0,35.198,0,34.968v-7.045   c0-0.4,0.253-1.156,0.603-2.203c0.499-1.493,1.183-3.538,1.761-6.341c0.716-3.479,1.47-6.596,1.92-8.459   c0.183-0.756,0.316-1.309,0.379-1.6c0.11-0.52,0.148-0.91,0.177-1.195c0.016-0.164,0.034-0.35,0.057-0.4   c0.189-0.198,2.067-1.467,3.566-2.149c1.551-0.705,3.229-1.349,3.246-1.355L12.281,4l-0.243-0.246   c0.246-0.124,0.357-0.307,0.357-0.556c0-0.326-0.214-0.5-0.328-0.593c-0.066-0.203-0.052-0.246-0.05-0.25   c0.02,0.022,0.291,0.022,0.555,0.022c0.148,0,0.635-0.045,0.635-0.634c0-0.166-0.076-0.277-0.162-0.351   c0.098-0.098,0.144-0.214,0.144-0.35V0.001C13.226,0,17.956,0,17.993,0.001v1.042c0,0.139,0.048,0.257,0.143,0.354   c-0.089,0.077-0.161,0.186-0.161,0.347c0,0.588,0.486,0.634,0.635,0.634c0.231,0,0.469,0,0.57,0.021c-0.005,0.019,0,0.07,0,0.154   c-0.182,0.146-0.396,0.32-0.396,0.647c0,0.256,0.119,0.444,0.353,0.558l-0.17,0.168l0.444,0.264   c0.002,0.001,1.085,0.645,2.542,1.575c1.019,0.65,2.493,1.715,3.679,2.571c0.77,0.556,1.418,1.023,1.743,1.235   c0.698,0.455,0.824,0.576,1.158,2.189c0.499,2.431,0.962,4.808,1.143,7.172c0.164,2.183,0.664,8.825,0.664,16.035   c0,0.23-0.056,0.35-0.126,0.5c-0.068,0.146-0.154,0.328-0.154,0.576c0,0.094,0.011,0.184,0.024,0.286   c0.035,0.274,0.089,0.689-0.22,1.915c-0.405,1.609-1.832,4.452-2.315,4.801h-9.599c-0.165-0.031-0.669-0.527-0.971-0.824   c-0.637-0.626-1.238-1.219-1.812-1.219c-0.572,0-1.173,0.592-1.809,1.218c-0.302,0.297-0.807,0.794-0.983,0.826L2.727,43.046z    M8.252,8.086c-1.045,0-1.764,0.707-2.138,2.1c-0.347,1.279-0.879,5.413-0.879,7.291c0,2.435,0.443,3.678,1.354,3.799l0.115,0.008   c1.001,0,2.096-1.784,2.575-3.508c0.469-1.692,1.063-5.317,1.163-6.788c0.103-1.496-0.626-2.675-1.771-2.866   C8.525,8.099,8.385,8.086,8.252,8.086z"/>
</svg>