<svg version="1.2" baseProfile="tiny" id="EdgeSVG_3K0F0" x="0px" y="0px" width="33.14px" height="46.165px" viewBox="0 0 33.14 46.165" xmlns:xlink="http://www.w3.org/1999/xlink" xmlns="http://www.w3.org/2000/svg">
  <linearGradient id="SVGID_3_" gradientUnits="userSpaceOnUse" x1="16.5693" y1="1.7188" x2="16.5693" y2="45.165">
    <stop offset="0" style="stop-color:#000000;stop-opacity:0.05"/>
    <stop offset="0.009" style="stop-color:#000000;stop-opacity:0.1"/>
    <stop offset="0.0241" style="stop-color:#000000;stop-opacity:0.08"/>
    <stop offset="0.0332" style="stop-color:#000000;stop-opacity:0.15"/>
    <stop offset="0.04" style="stop-color:#000000;stop-opacity:0.0863"/>
    <stop offset="0.0407" style="stop-color:#000000;stop-opacity:0.08"/>
    <stop offset="0.0528" style="stop-color:#000000;stop-opacity:0.15"/>
    <stop offset="0.083" style="stop-color:#000000;stop-opacity:0.08"/>
    <stop offset="0.0935" style="stop-color:#000000;stop-opacity:0.15"/>
    <stop offset="0.0997" style="stop-color:#000000;stop-opacity:0.1323"/>
    <stop offset="0.1357" style="stop-color:#000000;stop-opacity:0.03"/>
    <stop offset="0.2247" style="stop-color:#000000;stop-opacity:0.1"/>
    <stop offset="0.359" style="stop-color:#000000;stop-opacity:0.01"/>
    <stop offset="0.7602" style="stop-color:#000000;stop-opacity:0.15"/>
    <stop offset="0.9367" style="stop-color:#000000;stop-opacity:0.09"/>
    <stop offset="1" style="stop-color:#000000;stop-opacity:0.2"/>
  </linearGradient>
  <path fill="url(#SVGID_3_)" d="M32.14,36.686c0,0.572-0.28,0.717-0.28,1.076s0.209,0.646-0.208,2.299&#xD;&#xA;&#x9;&#x9;c-0.416,1.654-2.084,5.104-2.642,5.104c-0.554,0-9.037,0-9.66,0c-0.626,0-2.006-2.043-2.782-2.043c-0.775,0-2.153,2.043-2.78,2.043&#xD;&#xA;&#x9;&#x9;c-0.624,0-9.104,0-9.66,0c-0.556,0-2.225-3.449-2.641-5.104c-0.417-1.652-0.208-1.939-0.208-2.299S1,37.258,1,36.686&#xD;&#xA;&#x9;&#x9;c0-0.576,0-5.967,0-7.045s1.364-3.737,2.372-8.625c1.005-4.887,2.084-9.055,2.299-10.062c0.215-1.005,0.145-1.509,0.287-1.725&#xD;&#xA;&#x9;&#x9;c0.145-0.216,2.157-1.581,3.738-2.301c1.58-0.718,3.27-1.365,3.27-1.365s-0.106-0.107,0-0.287c0.108-0.18,0.43-0.072,0.43-0.36&#xD;&#xA;&#x9;&#x9;s-0.395-0.288-0.395-0.647c0-0.575,0.18-0.575,0.972-0.575c0.216,0,0.234-0.108,0.234-0.234s-0.344-0.089-0.344-0.341&#xD;&#xA;&#x9;&#x9;c0-0.251,0.325-0.179,0.325-0.359c0-0.179,0-0.647,0-0.827c0-0.179,0.106-0.215,0.539-0.215c0.431,0,2.265,0,2.265,0&#xD;&#xA;&#x9;&#x9;s1.831,0,2.263,0s0.539,0.037,0.539,0.215c0,0.18,0,0.647,0,0.827c0,0.18,0.322,0.108,0.322,0.359c0,0.252-0.341,0.215-0.341,0.341&#xD;&#xA;&#x9;&#x9;s0.019,0.234,0.234,0.234c0.79,0,0.971,0,0.971,0.575c0,0.359-0.396,0.359-0.396,0.647s0.324,0.18,0.431,0.36&#xD;&#xA;&#x9;&#x9;c0.108,0.18,0,0.287,0,0.287s1.088,0.646,2.553,1.581c1.688,1.079,4.6,3.271,5.426,3.809c0.828,0.539,0.989,0.793,1.331,2.443&#xD;&#xA;&#x9;&#x9;c0.502,2.444,0.969,4.852,1.149,7.223C31.652,22.993,32.14,29.606,32.14,36.686z M7.901,12.008&#xD;&#xA;&#x9;&#x9;c-0.338,1.246-0.865,5.319-0.865,7.187c0,1.869,0.288,3.307,1.007,3.403c0.718,0.095,1.772-1.486,2.252-3.21&#xD;&#xA;&#x9;&#x9;c0.479-1.725,1.055-5.318,1.149-6.708c0.096-1.39-0.585-2.302-1.438-2.444C8.856,10.043,8.235,10.763,7.901,12.008z"/>
  <linearGradient id="SVGID_4_" gradientUnits="userSpaceOnUse" x1="16.5693" y1="1.7183" x2="16.5693" y2="44.915">
    <stop offset="0" style="stop-color:#FFFFFF;stop-opacity:0"/>
    <stop offset="0.1448" style="stop-color:#FFFFFF;stop-opacity:0.05"/>
    <stop offset="0.7929" style="stop-color:#FFFFFF;stop-opacity:0.05"/>
    <stop offset="0.8567" style="stop-color:#FFFFFF;stop-opacity:0.05"/>
    <stop offset="1" style="stop-color:#FFFFFF;stop-opacity:0"/>
  </linearGradient>
  <path fill="url(#SVGID_4_)" d="M19.35,44.915c-0.193,0-0.725-0.522-1.075-0.867c-0.615-0.604-1.195-1.176-1.707-1.176&#xD;&#xA;&#x9;&#x9;c-0.511,0-1.09,0.57-1.704,1.175c-0.351,0.346-0.882,0.868-1.076,0.868h-9.66C3.713,44.755,2.166,41.74,1.729,40&#xD;&#xA;&#x9;&#x9;c-0.316-1.254-0.26-1.686-0.223-1.972c0.013-0.096,0.022-0.18,0.022-0.267c0-0.214-0.073-0.372-0.139-0.512&#xD;&#xA;&#x9;&#x9;c-0.071-0.154-0.14-0.301-0.14-0.564v-7.045c0-0.425,0.256-1.19,0.61-2.251c0.498-1.489,1.181-3.529,1.757-6.324&#xD;&#xA;&#x9;&#x9;c0.716-3.481,1.47-6.601,1.921-8.464c0.183-0.754,0.315-1.306,0.377-1.596c0.109-0.512,0.147-0.897,0.175-1.178&#xD;&#xA;&#x9;&#x9;c0.02-0.208,0.039-0.404,0.077-0.461C6.34,9.16,8.246,7.863,9.8,7.156c1.555-0.707,3.238-1.353,3.256-1.359l0.357-0.137&#xD;&#xA;&#x9;&#x9;c0,0,0.232-0.39,0.232-0.743c0-0.254-0.164-0.388-0.272-0.477c-0.101-0.082-0.122-0.105-0.122-0.17c0-0.325,0-0.325,0.722-0.325&#xD;&#xA;&#x9;&#x9;c0.181,0,0.484-0.063,0.484-0.484c0-0.22-0.011-1.741-0.011-1.741l5.047-0.002c0,0,0.032,1.524,0.032,1.743&#xD;&#xA;&#x9;&#x9;c0,0.421,0.304,0.484,0.484,0.484c0.721,0,0.721,0,0.721,0.325c0,0.064-0.021,0.088-0.122,0.169&#xD;&#xA;&#x9;&#x9;c-0.109,0.089-0.274,0.223-0.274,0.478c0,0.353,0.171,0.702,0.171,0.702l0.382,0.16c0.002,0.001,1.086,0.646,2.546,1.577&#xD;&#xA;&#x9;&#x9;c1.022,0.653,2.5,1.719,3.687,2.576c0.768,0.554,1.413,1.02,1.737,1.231c0.758,0.493,0.889,0.67,1.223,2.285&#xD;&#xA;&#x9;&#x9;c0.5,2.436,0.965,4.818,1.146,7.191c0.164,2.184,0.665,8.831,0.665,16.046c0,0.264-0.068,0.409-0.141,0.563&#xD;&#xA;&#x9;&#x9;c-0.065,0.14-0.14,0.298-0.14,0.513c0,0.087,0.01,0.171,0.022,0.267c0.037,0.286,0.094,0.718-0.223,1.971&#xD;&#xA;&#x9;&#x9;c-0.436,1.731-1.967,4.721-2.416,4.915H19.35z M9.652,9.955c-0.981,0-1.634,0.65-1.992,1.988c-0.345,1.272-0.874,5.384-0.874,7.252&#xD;&#xA;&#x9;&#x9;c0,2.314,0.412,3.542,1.224,3.651c0.002,0,0.004,0,0.006,0c1.012,0,2.066-1.76,2.521-3.392c0.467-1.685,1.058-5.294,1.157-6.758&#xD;&#xA;&#x9;&#x9;c0.098-1.417-0.579-2.53-1.646-2.708C9.909,9.966,9.777,9.955,9.652,9.955z"/>
  <linearGradient id="SVGID_5_" gradientUnits="userSpaceOnUse" x1="1" y1="23.4419" x2="32.1396" y2="23.4419">
    <stop offset="0" style="stop-color:#000000;stop-opacity:0.07"/>
    <stop offset="0.1297" style="stop-color:#000000;stop-opacity:0.03"/>
    <stop offset="0.3107" style="stop-color:#000000;stop-opacity:0.05"/>
    <stop offset="0.5" style="stop-color:#FFFFFF;stop-opacity:0.05"/>
    <stop offset="0.6953" style="stop-color:#000000;stop-opacity:0.05"/>
    <stop offset="0.8989" style="stop-color:#000000;stop-opacity:0.03"/>
    <stop offset="1" style="stop-color:#000000;stop-opacity:0.07"/>
  </linearGradient>
  <path fill="url(#SVGID_5_)" d="M32.14,36.686c0,0.572-0.28,0.717-0.28,1.076s0.209,0.646-0.208,2.299&#xD;&#xA;&#x9;&#x9;c-0.416,1.654-2.084,5.104-2.642,5.104c-0.554,0-9.037,0-9.66,0c-0.626,0-2.006-2.043-2.782-2.043c-0.775,0-2.153,2.043-2.78,2.043&#xD;&#xA;&#x9;&#x9;c-0.624,0-9.104,0-9.66,0c-0.556,0-2.225-3.449-2.641-5.104c-0.417-1.652-0.208-1.939-0.208-2.299S1,37.258,1,36.686&#xD;&#xA;&#x9;&#x9;c0-0.576,0-5.967,0-7.045s1.364-3.737,2.372-8.625c1.005-4.887,2.084-9.055,2.299-10.062c0.215-1.005,0.145-1.509,0.287-1.725&#xD;&#xA;&#x9;&#x9;c0.145-0.216,2.157-1.581,3.738-2.301c1.58-0.718,3.27-1.365,3.27-1.365s-0.106-0.107,0-0.287c0.108-0.18,0.43-0.072,0.43-0.36&#xD;&#xA;&#x9;&#x9;s-0.395-0.288-0.395-0.647c0-0.575,0.18-0.575,0.972-0.575c0.216,0,0.234-0.108,0.234-0.234s-0.344-0.089-0.344-0.341&#xD;&#xA;&#x9;&#x9;c0-0.251,0.325-0.179,0.325-0.359c0-0.179,0-0.647,0-0.827c0-0.179,0.106-0.215,0.539-0.215c0.431,0,2.265,0,2.265,0&#xD;&#xA;&#x9;&#x9;s1.831,0,2.263,0s0.539,0.037,0.539,0.215c0,0.18,0,0.647,0,0.827c0,0.18,0.322,0.108,0.322,0.359c0,0.252-0.341,0.215-0.341,0.341&#xD;&#xA;&#x9;&#x9;s0.019,0.234,0.234,0.234c0.79,0,0.971,0,0.971,0.575c0,0.359-0.396,0.359-0.396,0.647s0.324,0.18,0.431,0.36&#xD;&#xA;&#x9;&#x9;c0.108,0.18,0,0.287,0,0.287s1.088,0.646,2.553,1.581c1.688,1.079,4.6,3.271,5.426,3.809c0.828,0.539,0.989,0.793,1.331,2.443&#xD;&#xA;&#x9;&#x9;c0.502,2.444,0.969,4.852,1.149,7.223C31.652,22.993,32.14,29.606,32.14,36.686z M7.901,12.008&#xD;&#xA;&#x9;&#x9;c-0.338,1.246-0.865,5.319-0.865,7.187c0,1.869,0.288,3.307,1.007,3.403c0.718,0.095,1.772-1.486,2.252-3.21&#xD;&#xA;&#x9;&#x9;c0.479-1.725,1.055-5.318,1.149-6.708c0.096-1.39-0.585-2.302-1.438-2.444C8.856,10.043,8.235,10.763,7.901,12.008z"/>
  <linearGradient id="SVGID_6_" gradientUnits="userSpaceOnUse" x1="16.9854" y1="1.7188" x2="16.9854" y2="5.5591">
    <stop offset="0" style="stop-color:#FFFFFF;stop-opacity:0.1"/>
    <stop offset="0.0181" style="stop-color:#FFFFFF;stop-opacity:0.45"/>
    <stop offset="0.0215" style="stop-color:#FFFFFF;stop-opacity:0.4183"/>
    <stop offset="0.0664" style="stop-color:#FFFFFF;stop-opacity:0"/>
    <stop offset="0.2489" style="stop-color:#FFFFFF;stop-opacity:0"/>
    <stop offset="0.2715" style="stop-color:#FFFFFF;stop-opacity:0"/>
    <stop offset="0.3409" style="stop-color:#FFFFFF;stop-opacity:0.35"/>
    <stop offset="0.3635" style="stop-color:#FFFFFF;stop-opacity:0.1"/>
    <stop offset="0.4751" style="stop-color:#FFFFFF;stop-opacity:0"/>
    <stop offset="0.5158" style="stop-color:#FFFFFF;stop-opacity:0.35"/>
    <stop offset="0.6501" style="stop-color:#FFFFFF;stop-opacity:0.0343"/>
    <stop offset="0.8492" style="stop-color:#FFFFFF;stop-opacity:0"/>
    <stop offset="0.9035" style="stop-color:#FFFFFF;stop-opacity:0.35"/>
    <stop offset="0.9698" style="stop-color:#FFFFFF;stop-opacity:0"/>
  </linearGradient>
  <path fill="url(#SVGID_6_)" d="M21.011,5.559h-8.05c0,0-0.11-0.1,0-0.28c0.11-0.18,0.43-0.08,0.43-0.36c0-0.29-0.39-0.29-0.39-0.65&#xD;&#xA;&#x9;&#x9;c0-0.581,0.18-0.58,0.97-0.58c0.21,0,0.23-0.1,0.23-0.23s-0.34-0.09-0.34-0.34s0.319-0.18,0.319-0.36v-0.83&#xD;&#xA;&#x9;&#x9;c0-0.18,0.11-0.21,0.54-0.21c0.431,0,2.271,0,2.271,0s1.83,0,2.26,0s0.54,0.03,0.54,0.21v0.83c0,0.18,0.32,0.11,0.32,0.36&#xD;&#xA;&#x9;&#x9;s-0.34,0.21-0.34,0.34s0.02,0.23,0.229,0.23c0.79,0,0.97,0,0.97,0.58c0,0.36-0.39,0.36-0.39,0.65c0,0.28,0.32,0.18,0.43,0.36&#xD;&#xA;&#x9;&#x9;C21.121,5.459,21.011,5.559,21.011,5.559z"/>
  <linearGradient id="SVGID_7_" gradientUnits="userSpaceOnUse" x1="16.5654" y1="40.2798" x2="16.5654" y2="45.1597">
    <stop offset="0" style="stop-color:#000000;stop-opacity:0.2"/>
    <stop offset="1" style="stop-color:#000000;stop-opacity:0.1"/>
  </linearGradient>
  <path fill="url(#SVGID_7_)" d="M19.726,45.16h-0.38c-0.62,0-2-2.04-2.78-2.04c-0.77,0-2.149,2.04-2.779,2.04h-0.381&#xD;&#xA;&#x9;&#x9;c1.681-0.45,1.96-4.88,3.051-4.88C17.546,40.28,17.966,44.72,19.726,45.16z"/>
  <linearGradient id="SVGID_8_" gradientUnits="userSpaceOnUse" x1="6.9404" y1="6.1899" x2="6.9404" y2="30.4502">
    <stop offset="0.6848" style="stop-color:#FFFFFF;stop-opacity:0"/>
    <stop offset="0.7722" style="stop-color:#FFFFFF;stop-opacity:0.25"/>
    <stop offset="0.914" style="stop-color:#FFFFFF;stop-opacity:0.25"/>
    <stop offset="1" style="stop-color:#FFFFFF;stop-opacity:0"/>
  </linearGradient>
  <path fill="url(#SVGID_8_)" d="M12.365,8.03c-0.04-0.99-0.409-1.59-0.96-1.84c-0.52,0.22-1.119,0.47-1.71,0.74&#xD;&#xA;&#x9;&#x9;c-1.58,0.72-3.59,2.08-3.739,2.3c-0.141,0.22-0.07,0.72-0.28,1.72c-0.22,1.01-1.3,5.18-2.3,10.07c-1.011,4.88-2.38,7.54-2.38,8.62&#xD;&#xA;&#x9;&#x9;v0.81c0.189-0.76,1.06-1.479,4.439-3.11c5.311-2.56,5.811-4.43,6.93-9.06C13.496,13.65,12.436,9.84,12.365,8.03z M11.865,13.22&#xD;&#xA;&#x9;&#x9;c-0.5,3-1.319,8.19-2.35,9.25c-1.02,1.06-4.893,4.387-5.022,2.248c-0.13-2.141,0.872-4.998,1.313-7.938s0.89-6.25,1.13-7&#xD;&#xA;&#x9;&#x9;c0.24-0.72,3.561-2.13,4.311-1.44S12.365,10.22,11.865,13.22z"/>
  <linearGradient id="SVGID_9_" gradientUnits="userSpaceOnUse" x1="8.2881" y1="8.1548" x2="8.2881" y2="25.4209">
    <stop offset="0.092" style="stop-color:#000000;stop-opacity:0.2"/>
    <stop offset="0.6757" style="stop-color:#000000;stop-opacity:0.05"/>
    <stop offset="0.8929" style="stop-color:#FFFFFF;stop-opacity:0.05"/>
    <stop offset="1" style="stop-color:#FFFFFF;stop-opacity:0.25"/>
  </linearGradient>
  <path fill="url(#SVGID_9_)" d="M11.246,8.34c-0.75-0.69-4.07,0.72-4.311,1.44c-0.24,0.75-0.689,4.06-1.13,7&#xD;&#xA;&#x9;&#x9;s-1.442,5.797-1.313,7.938c0.13,2.14,4.003-1.188,5.022-2.248c1.03-1.06,1.85-6.25,2.35-9.25S11.996,9.03,11.246,8.34z&#xD;&#xA;&#x9;&#x9; M10.296,19.39c-0.48,1.72-1.53,3.3-2.25,3.21c-0.721-0.1-1.01-1.541-1.01-3.4c0-1.87,0.529-5.95,0.869-7.19&#xD;&#xA;&#x9;&#x9;c0.33-1.25,0.95-1.97,2.101-1.77c0.85,0.14,1.53,1.05,1.439,2.44C11.346,14.07,10.775,17.66,10.296,19.39z"/>
  <linearGradient id="SVGID_10_" gradientUnits="userSpaceOnUse" x1="27.0156" y1="21.7397" x2="27.0156" y2="35.54">
    <stop offset="0" style="stop-color:#000000;stop-opacity:0.1"/>
    <stop offset="0.0966" style="stop-color:#2C2C2C;stop-opacity:0.1145"/>
    <stop offset="0.231" style="stop-color:#646464;stop-opacity:0.1346"/>
    <stop offset="0.3665" style="stop-color:#939393;stop-opacity:0.155"/>
    <stop offset="0.5001" style="stop-color:#BABABA;stop-opacity:0.175"/>
    <stop offset="0.6315" style="stop-color:#D8D8D8;stop-opacity:0.1947"/>
    <stop offset="0.76" style="stop-color:#EEEEEE;stop-opacity:0.214"/>
    <stop offset="0.8844" style="stop-color:#FBFBFB;stop-opacity:0.2327"/>
    <stop offset="1" style="stop-color:#FFFFFF;stop-opacity:0.25"/>
  </linearGradient>
  <path fill="url(#SVGID_10_)" d="M27.016,21.74c-2.41,0-4.36,3.08-4.36,6.9c0,3.81,1.95,6.899,4.36,6.899s4.36-3.09,4.36-6.899&#xD;&#xA;&#x9;&#x9;C31.376,24.82,29.426,21.74,27.016,21.74z M25.966,33.26c-1.62,0-2.92-2.07-2.92-4.62c0-2.561,1.3-4.63,2.92-4.63&#xD;&#xA;&#x9;&#x9;c1.609,0,2.92,2.069,2.92,4.63C28.886,31.19,27.575,33.26,25.966,33.26z"/>
  <linearGradient id="SVGID_11_" gradientUnits="userSpaceOnUse" x1="25.9658" y1="33.2603" x2="25.9658" y2="24.0103">
    <stop offset="0" style="stop-color:#000000;stop-opacity:0.02"/>
    <stop offset="1" style="stop-color:#FFFFFF;stop-opacity:0.02"/>
  </linearGradient>
  <path fill="url(#SVGID_11_)" d="M28.886,28.64c0,2.55-1.311,4.62-2.92,4.62c-1.62,0-2.92-2.07-2.92-4.62&#xD;&#xA;&#x9;&#x9;c0-2.561,1.3-4.63,2.92-4.63C27.575,24.01,28.886,26.08,28.886,28.64z"/>
</svg>