<svg version="1.2" baseProfile="tiny" id="EdgeSVG_3K0F0" x="0px" y="0px" width="33.14px" height="46.165px" viewBox="0 0 33.14 46.165" xmlns:xlink="http://www.w3.org/1999/xlink" xmlns="http://www.w3.org/2000/svg">
  <linearGradient id="SVGID_1_" gradientUnits="userSpaceOnUse" x1="0" y1="23.4419" x2="33.1396" y2="23.4419">
    <stop offset="0" style="stop-color:#000000;stop-opacity:0.5"/>
    <stop offset="1" style="stop-color:#000000;stop-opacity:0.5"/>
  </linearGradient>
  <path fill="url(#SVGID_1_)" d="M32.864,37.813c0.003-0.005,0.009-0.016,0.017-0.032c0.097-0.207,0.259-0.553,0.259-1.095&#xD;&#xA;&#x9;&#x9;c0-7.263-0.503-13.944-0.669-16.142c-0.187-2.446-0.658-4.871-1.167-7.35c-0.369-1.782-0.615-2.331-1.765-3.079&#xD;&#xA;&#x9;&#x9;c-0.315-0.206-0.942-0.659-1.688-1.198c-1.199-0.866-2.692-1.944-3.745-2.617c-0.907-0.578-1.671-1.047-2.127-1.324&#xD;&#xA;&#x9;&#x9;c-0.024-0.064-0.056-0.129-0.094-0.193C21.942,4.64,21.98,4.469,21.98,4.27c0-0.478-0.122-0.803-0.306-1.035&#xD;&#xA;&#x9;&#x9;c-0.161-0.204-0.369-0.337-0.597-0.415c-0.04-0.16-0.123-0.346-0.284-0.516v-0.37c0-0.454-0.2-1.215-1.539-1.215h-4.527&#xD;&#xA;&#x9;&#x9;c-1.339,0-1.539,0.761-1.539,1.215v0.364C13.024,2.47,12.941,2.659,12.9,2.822c-0.231,0.08-0.444,0.215-0.606,0.426&#xD;&#xA;&#x9;&#x9;c-0.177,0.231-0.293,0.555-0.293,1.022c0,0.198,0.038,0.368,0.096,0.513c-0.012,0.02-0.022,0.041-0.033,0.061&#xD;&#xA;&#x9;&#x9;c-0.633,0.251-1.724,0.695-2.781,1.175c-1.286,0.585-3.776,2.088-4.158,2.66C4.915,8.995,4.883,9.325,4.846,9.707&#xD;&#xA;&#x9;&#x9;c-0.024,0.25-0.057,0.589-0.152,1.039c-0.062,0.284-0.191,0.824-0.37,1.563c-0.453,1.872-1.211,5.004-1.931,8.505&#xD;&#xA;&#x9;&#x9;c-0.561,2.721-1.229,4.721-1.718,6.181C0.269,28.21,0,29.013,0,29.641v7.045c0,0.541,0.16,0.886,0.278,1.075&#xD;&#xA;&#x9;&#x9;c-0.001,0.035-0.007,0.068-0.012,0.106c-0.063,0.483-0.096,1.068,0.25,2.438c0.015,0.059,1.801,5.859,3.61,5.859h9.66&#xD;&#xA;&#x9;&#x9;c0.706,0,1.257-0.542,1.953-1.228c0.234-0.23,0.597-0.587,0.827-0.754c0.232,0.167,0.596,0.524,0.83,0.755&#xD;&#xA;&#x9;&#x9;c0.696,0.686,1.247,1.227,1.952,1.227h9.66c1.81,0,3.597-5.801,3.611-5.858c0.346-1.37,0.313-1.955,0.25-2.438&#xD;&#xA;&#x9;&#x9;C32.869,37.848,32.866,37.831,32.864,37.813z M9.331,19.12c-0.286,1.03-0.748,1.833-1.08,2.237&#xD;&#xA;&#x9;&#x9;c-0.101-0.345-0.215-0.995-0.215-2.162c0-1.754,0.51-5.744,0.831-6.928c0.285-1.062,0.636-1.062,0.785-1.062&#xD;&#xA;&#x9;&#x9;c0.06,0,0.123,0.006,0.19,0.017c0.335,0.056,0.661,0.562,0.604,1.39C10.353,13.991,9.773,17.528,9.331,19.12z"/>
</svg>