<svg version="1.2" baseProfile="tiny" id="EdgeSVG_R299A" x="0px" y="0px" width="43.52px" height="126.641px" viewBox="0 0 43.52 126.641" xmlns:xlink="http://www.w3.org/1999/xlink" xmlns="http://www.w3.org/2000/svg">
  <linearGradient id="SVGID_47_" gradientUnits="userSpaceOnUse" x1="21.7583" y1="55.5239" x2="21.7583" y2="60.6836">
    <stop offset="0.0061" style="stop-color:#FFFFFF;stop-opacity:0.35"/>
    <stop offset="0.1098" style="stop-color:#FFFFFF;stop-opacity:0.1"/>
    <stop offset="1" style="stop-color:#FFFFFF;stop-opacity:0"/>
  </linearGradient>
  <path style="fill:url(#SVGID_47_);" d="M34.809,56.125c0-0.362,0-0.601-0.241-0.601H8.95c-0.242,0-0.242,0.239-0.242,0.601v3.959&#xD;&#xA;&#x9;&#x9;c0,0.361,0,0.6,0.242,0.6h25.618c0.241,0,0.241-0.238,0.241-0.6V56.125z"/>
  <radialGradient id="SVGID_48_" cx="21.8188" cy="37.7949" r="7.8811" gradientUnits="userSpaceOnUse">
    <stop offset="0.0305" style="stop-color:#FFFFFF;stop-opacity:0.9"/>
    <stop offset="0.3841" style="stop-color:#FFFFFF;stop-opacity:0.4"/>
    <stop offset="1" style="stop-color:#FFFFFF;stop-opacity:0"/>
  </radialGradient>
  <path style="fill:url(#SVGID_48_);" d="M34.309,51.595c0,0.132-0.108,0.24-0.24,0.24H9.449c-0.132,0-0.24-0.108-0.24-0.24v-16.32&#xD;&#xA;&#x9;&#x9;c0-0.132,0.108-0.24,0.24-0.24h24.62c0.132,0,0.24,0.108,0.24,0.24V51.595z"/>
  <radialGradient id="SVGID_49_" cx="21.6987" cy="45.5952" r="6.895" gradientUnits="userSpaceOnUse">
    <stop offset="0.0305" style="stop-color:#FFFFFF;stop-opacity:0.9"/>
    <stop offset="0.3841" style="stop-color:#FFFFFF;stop-opacity:0.4"/>
    <stop offset="1" style="stop-color:#FFFFFF;stop-opacity:0"/>
  </radialGradient>
  <path style="fill:url(#SVGID_49_);" d="M34.309,51.595c0,0.132-0.108,0.24-0.24,0.24H9.449c-0.132,0-0.24-0.108-0.24-0.24v-16.32&#xD;&#xA;&#x9;&#x9;c0-0.132,0.108-0.24,0.24-0.24h24.62c0.132,0,0.24,0.108,0.24,0.24V51.595z"/>
  <radialGradient id="SVGID_50_" cx="21.7588" cy="41.0952" r="12.0553" gradientUnits="userSpaceOnUse">
    <stop offset="0.0305" style="stop-color:#FFFFFF;stop-opacity:0.9"/>
    <stop offset="0.3841" style="stop-color:#FFFFFF;stop-opacity:0.4"/>
    <stop offset="1" style="stop-color:#FFFFFF;stop-opacity:0"/>
  </radialGradient>
  <path style="fill:url(#SVGID_50_);" d="M34.309,51.595c0,0.132-0.108,0.24-0.24,0.24H9.449c-0.132,0-0.24-0.108-0.24-0.24v-16.32&#xD;&#xA;&#x9;&#x9;c0-0.132,0.108-0.24,0.24-0.24h24.62c0.132,0,0.24,0.108,0.24,0.24V51.595z"/>
  <radialGradient id="SVGID_51_" cx="21.7588" cy="43.4351" r="14.5753" gradientUnits="userSpaceOnUse">
    <stop offset="0" style="stop-color:#FFFFFF;stop-opacity:0.4"/>
    <stop offset="1" style="stop-color:#FFFFFF;stop-opacity:0"/>
  </radialGradient>
  <path style="fill:url(#SVGID_51_);" d="M34.309,51.595c0,0.132-0.108,0.24-0.24,0.24H9.449c-0.132,0-0.24-0.108-0.24-0.24v-16.32&#xD;&#xA;&#x9;&#x9;c0-0.132,0.108-0.24,0.24-0.24h24.62c0.132,0,0.24,0.108,0.24,0.24V51.595z"/>
</svg>