<svg version="1.2" baseProfile="tiny" viewBox="0 0 159.75 90.812" xmlns:xlink="http://www.w3.org/1999/xlink" xmlns="http://www.w3.org/2000/svg">
<path style="fill:#ffffff;" d="M158.25,58.2922L158.25,85.0218C158.25,85.3842,157.9496,85.6811,157.5838,85.6811L150.9893,85.6811L150.9893,87.6608C150.9893,88.0232,150.7145,88.321,150.3791,88.321L147.3598,88.321L147.3598,88.6498C147.3598,89.013,147.0627,89.31,146.6984,89.31L106.4382,89.31C106.0756,89.31,105.7785,89.013,105.7785,88.6498L105.7785,87.6608L105.7785,85.6811L90.9377,85.6811C90.5703,85.6811,90.2699,85.3842,90.2699,85.0218L90.2699,58.2922C90.2699,57.929,90.5703,57.632,90.9377,57.632L105.7801,57.632L105.7801,55.6523L105.7801,54.6634C105.7801,54.3001,106.0772,54.0032,106.4398,54.0032L114.6893,54.0032L114.6893,53.0133L114.6893,52.0916L114.6893,49.7132L114.6893,40.7337C114.6893,40.2279,115.2996,39.8129,115.8443,39.8129L116.0104,39.8129L116.0104,36.5128C117.0153,36.2467,118.0073,36.0306,118.9802,35.8526L118.9802,33.8738L114.6893,33.8738C113.9641,33.8738,113.3698,33.6086,113.3698,32.8839L113.3698,17.3742C113.3698,16.6467,113.9641,16.3843,114.6893,16.3843L114.6893,8.2902C113.9497,8.2439,113.4784,8.1912,113.3698,8.1322C112.5487,7.6872,112.3586,2.7561,113.3698,2.5218C121.6752,0.5966,138.6694,1.8626,139.4394,2.5218C140.2094,3.1821,140.211,7.5828,139.4394,8.1322C139.3435,8.2012,138.8723,8.2603,138.1199,8.3111L138.1199,16.3816C138.8467,16.3816,139.4394,16.6458,139.4394,17.3723L139.4394,32.8821C139.4394,33.6077,138.8467,33.872,138.1199,33.872L134.1597,33.872L134.1597,35.8989C135.8338,36.2122,136.8003,36.511,136.8003,36.511L136.8003,39.8111L137.2955,39.8111C137.8387,39.8111,138.1199,40.2261,138.1199,40.7319L138.1199,41.7917L142.4107,41.7917C142.7734,41.7917,143.0705,42.0886,143.0705,42.4519L143.0705,46.4122C143.0705,46.7736,142.7734,47.0724,142.4107,47.0724L138.1199,47.0724L138.1199,49.7123L138.1199,52.0907L138.1199,53.0124L138.1199,54.0023L146.7,54.0023C147.0627,54.0023,147.3598,54.2992,147.3598,54.6616L147.3598,54.9921L150.3807,54.9921C150.7161,54.9921,150.9909,55.2891,150.9909,55.6514L150.9909,57.6311L157.5838,57.6311C157.9496,57.632,158.25,57.929,158.25,58.2922Z"/>
</svg>