<svg version="1.2" baseProfile="tiny" viewBox="0 0 159.75 90.812" xmlns:xlink="http://www.w3.org/1999/xlink" xmlns="http://www.w3.org/2000/svg">
<path style="fill:#ffffff;" d="M157.5838,57.632L150.9893,57.632L150.9893,55.6523C150.9893,55.29,150.7145,54.993,150.3791,54.993L147.3598,54.993L147.3598,54.6634C147.3598,54.3001,147.0627,54.0032,146.6984,54.0032L138.1183,54.0032L138.1183,53.0133L138.1183,52.0916L138.1183,49.7132L138.1183,47.0733L139.4394,47.0733L139.4394,50.0429L142.0784,50.0429L142.0784,47.0733L142.4091,47.0733C142.7718,47.0733,143.0689,46.7754,143.0689,46.4131L143.0689,42.4528C143.0689,42.0905,142.7718,41.7926,142.4091,41.7926L142.0784,41.7926L142.0784,36.5128C142.0784,33.2072,140.1055,31.2339,136.7987,31.2339L132.5094,31.2339C133.4152,31.2339,134.1597,30.7126,134.1597,30.0787C134.1597,29.4431,133.4152,28.9236,132.5094,28.9236L133.1692,28.9236C133.5302,28.9236,133.829,28.6267,133.829,28.2643L133.829,22.9854C133.829,22.6222,133.5318,22.3252,133.1692,22.3252L119.9691,22.3252C119.6064,22.3252,119.3093,22.6222,119.3093,22.9854L119.3093,28.2643C119.3093,28.6267,119.6064,28.9236,119.9691,28.9236L120.6288,28.9236C119.7214,28.9236,118.9786,29.444,118.9786,30.0787C118.9786,30.7144,119.7214,31.2339,120.6288,31.2339L114.6893,31.2339C114.0056,31.2339,113.3778,30.9487,112.6669,30.4202L113.9161,29.0898L100.4204,16.4252L99.1233,17.8073C98.7846,17.4868,98.4443,17.1644,98.1073,16.8438C93.1343,12.1279,88.4184,7.6736,87.1324,6.5594L87.0302,6.5103C84.5205,4.5787,82.6786,4.0502,77.3973,4.0502L77.3973,3.5117C77.3973,3.5117,77.2327,2.6236,75.5841,2.6563C73.9339,2.688,25.5888,1.6982,16.1843,1.6982C6.7798,1.6982,1.5001,3.8423,1.5001,5.327C1.5001,6.8118,2.3244,8.7924,15.6906,8.7924C29.0553,8.7924,73.6048,7.9669,75.255,7.9669C76.9036,7.9669,77.4005,8.0487,77.4005,7.018C77.4005,6.9126,77.4005,6.8009,77.4005,6.6892C82.3495,6.6892,83.5413,7.1614,85.3928,8.5781C86.6788,9.6996,91.6166,14.3038,96.3117,18.7581C96.6535,19.0814,96.9906,19.402,97.3277,19.7207L95.9043,21.2382L109.4016,33.9001L110.8537,32.3527C112.0039,33.2581,113.2036,33.872,114.6893,33.872L118.9802,33.872L118.9802,35.8508C118.0073,36.0288,117.0153,36.2458,116.0104,36.511L116.0104,39.8111L115.8443,39.8111C115.2996,39.8111,114.6893,40.2261,114.6893,40.7319L114.6893,49.7114L114.6893,52.0898L114.6893,53.0106L114.6893,54.0014L106.4398,54.0014C106.0772,54.0014,105.7801,54.2983,105.7801,54.6606L105.7801,55.6496L105.7801,57.6302L90.9377,57.6302C90.5703,57.6302,90.2699,57.9272,90.2699,58.2904L90.2699,85.02C90.2699,85.3823,90.5703,85.6793,90.9377,85.6793L105.7801,85.6793L105.7801,87.659L105.7801,88.6479C105.7801,89.0112,106.0772,89.3082,106.4398,89.3082L146.7,89.3082C147.0627,89.3082,147.3598,89.0112,147.3598,88.6479L147.3598,88.3192L150.3807,88.3192C150.7161,88.3192,150.9909,88.0213,150.9909,87.659L150.9909,85.6793L157.5838,85.6793C157.9512,85.6793,158.2515,85.3823,158.2515,85.02L158.2515,58.2904C158.25,57.929,157.9496,57.632,157.5838,57.632M134.1597,35.8989L134.1597,33.872L136.8003,33.872C138.6247,33.872,139.4394,34.6847,139.4394,36.5119L139.4394,41.7917L138.1199,41.7917L138.1199,40.7319C138.1199,40.2261,137.8403,39.8111,137.2955,39.8111L136.8003,39.8111L136.8003,36.511C136.8003,36.5119,135.8338,36.2131,134.1597,35.8989Z"/>
</svg>